<svg width="860" height="300" viewBox="0 0 860 300" xmlns="http://www.w3.org/2000/svg" font-family="'Segoe UI', system-ui, sans-serif">
  <rect width="860" height="300" fill="#0d1117" rx="8"/>
  <line x1="60" y1="22" x2="340" y2="22" stroke="#30363d" stroke-width="1"/>
  <text x="430" y="27" fill="#8b949e" font-size="11" letter-spacing="2" text-anchor="middle" font-weight="500">INTERESTS</text>
  <line x1="520" y1="22" x2="800" y2="22" stroke="#30363d" stroke-width="1"/>

  <!-- 01 -->
  <rect x="60" y="44" width="360" height="52" rx="8" fill="#161b22" stroke="#30363d" stroke-width="1"/>
  <circle cx="88" cy="70" r="6" fill="#f59e0b"/>
  <text x="104" y="67" fill="#8b949e" font-size="11" font-family="monospace">01</text>
  <text x="126" y="75" fill="#e6edf3" font-size="14" font-weight="500">Cloud architecture &amp; serverless</text>

  <!-- 02 -->
  <rect x="440" y="44" width="360" height="52" rx="8" fill="#161b22" stroke="#30363d" stroke-width="1"/>
  <circle cx="468" cy="70" r="6" fill="#a78bfa"/>
  <text x="484" y="67" fill="#8b949e" font-size="11" font-family="monospace">02</text>
  <text x="506" y="75" fill="#e6edf3" font-size="14" font-weight="500">Infrastructure as Code</text>

  <!-- 03 -->
  <rect x="60" y="108" width="360" height="52" rx="8" fill="#161b22" stroke="#30363d" stroke-width="1"/>
  <circle cx="88" cy="134" r="6" fill="#3b82f6"/>
  <text x="104" y="131" fill="#8b949e" font-size="11" font-family="monospace">03</text>
  <text x="126" y="139" fill="#e6edf3" font-size="14" font-weight="500">Containerisation &amp; orchestration</text>

  <!-- 04 -->
  <rect x="440" y="108" width="360" height="52" rx="8" fill="#161b22" stroke="#30363d" stroke-width="1"/>
  <circle cx="468" cy="134" r="6" fill="#22c55e"/>
  <text x="484" y="131" fill="#8b949e" font-size="11" font-family="monospace">04</text>
  <text x="506" y="139" fill="#e6edf3" font-size="14" font-weight="500">CI/CD pipelines &amp; automation</text>

  <!-- 05 -->
  <rect x="60" y="172" width="360" height="52" rx="8" fill="#161b22" stroke="#30363d" stroke-width="1"/>
  <circle cx="88" cy="198" r="6" fill="#f97316"/>
  <text x="104" y="195" fill="#8b949e" font-size="11" font-family="monospace">05</text>
  <text x="126" y="203" fill="#e6edf3" font-size="14" font-weight="500">Games · Anime · Movies &amp; Series</text>

  <!-- 06 -->
  <rect x="440" y="172" width="360" height="52" rx="8" fill="#161b22" stroke="#30363d" stroke-width="1"/>
  <circle cx="468" cy="198" r="6" fill="#0ea5e9"/>
  <text x="484" y="195" fill="#8b949e" font-size="11" font-family="monospace">06</text>
  <text x="506" y="203" fill="#e6edf3" font-size="14" font-weight="500">Serverless &amp; edge compute</text>

  <!-- 07 -->
  <rect x="60" y="236" width="360" height="52" rx="8" fill="#161b22" stroke="#30363d" stroke-width="1"/>
  <circle cx="88" cy="262" r="6" fill="#ec4899"/>
  <text x="104" y="259" fill="#8b949e" font-size="11" font-family="monospace">07</text>
  <text x="126" y="267" fill="#e6edf3" font-size="14" font-weight="500">Reading &amp; continuous learning</text>

  <!-- 08 -->
  <rect x="440" y="236" width="360" height="52" rx="8" fill="#161b22" stroke="#30363d" stroke-width="1"/>
  <circle cx="468" cy="262" r="6" fill="#84cc16"/>
  <text x="484" y="259" fill="#8b949e" font-size="11" font-family="monospace">08</text>
  <text x="506" y="267" fill="#e6edf3" font-size="14" font-weight="500">Open source contribution</text>
</svg>
